<svg height="1898" viewBox="0 -5.9 863.8 649.9" width="2500" xmlns="http://www.w3.org/2000/svg"><path d="m491.8 79.2-6.8 2.1v25.5c0 12.8-8.4 24.4-20.5 28.3l-69.8 22v37.9l91.7-28.9c21.8-6.8 34.7-25.5 34.7-50.2v-16.9c.1-11.6-13.2-24.9-29.3-19.8zm-145.9-10.8 129.6-40.9c14.2-4.5 25.4-4.2 32.2-3.4l-16.3-11.9c-7.5-5.4-30.3-18.1-58.5-9.1l-123.1 38.8z"/><path d="m543.4 180.6s22.9-20.8 22.9-65.4v-19c0-29.4-33.9-77.2-88.1-60.1l-128.6 40.6v238.5l36.1-11.4v-58.6l116.1-36.6c21.6-6.8 39.7 10.2 39.7 29.1v23.2c0 23.7-20.9 57.2-53.7 67.5l-178 56.1 36.1 26.5 160.3-50.6c33.8-10.8 71.3-39.8 71.3-101.5v-23.7c.1-37.2-34.1-54.6-34.1-54.6zm-54.3-5.9-103.4 32.6v-104.1l103.4-32.6c21.6-6.8 41.1 10.5 41.1 28.3v17c0 29.7-16.3 51-41.1 58.8z"/><path d="m532.4 260.9v-23.2c0-13.1-12.7-25.3-27.9-20.5l-8.2 2.6v32.1c0 15.8-10.1 29.7-25.3 34.4l-130.5 41.1v-251.8l-36.1-26.5v327.5l180.6-56.9c28.4-8.8 47.4-37.5 47.4-58.8zm-479.1 337.6c-12.8 0-22.9-4-30.4-11.9v9.8h-22.9v-144.9l22.9-7.2v57.5c7.5-7.8 17.6-11.7 30.4-11.7 15.1 0 27.6 5.3 37.4 15.8 9.8 10.6 14.7 23.3 14.7 38.3s-4.9 27.8-14.7 38.3c-9.8 10.7-22.2 16-37.4 16zm-2.5-20.9c9 0 16.5-3.2 22.3-9.7s8.8-14.3 8.8-23.6-2.9-17.2-8.8-23.6c-5.8-6.5-13.3-9.7-22.3-9.7-11.9 0-21.3 4.8-27.9 14.4v37.7c6.5 9.7 15.9 14.5 27.9 14.5zm87.5-103.9c-4.2 0-7.7-1.5-10.7-4.5s-4.5-6.6-4.5-10.9c0-4.2 1.5-7.7 4.5-10.7s6.6-4.5 10.7-4.5c4.3 0 7.9 1.5 10.9 4.5s4.5 6.6 4.5 10.7c0 4.3-1.5 8-4.5 10.9-2.9 3-6.5 4.5-10.9 4.5zm-11.4 122.7v-104.2h22.9v104.2zm101 1c-10.7 0-19.4-2.9-26.1-8.9-6.7-5.9-10.1-14.5-10.1-25.7v-50.2h-25.8v-20.4h25.8v-23l22.9-7.3v30.2h31.9v20.4h-31.9v46.5c0 11.8 5.4 17.7 16.3 17.7 5.7 0 10.6-1.3 14.8-3.8l6.9 19.2c-7.3 3.6-15.5 5.3-24.7 5.3zm39.8 46.6v-151.8h22.9v9.6c7.5-7.8 17.6-11.7 30.4-11.7 15.1 0 27.6 5.3 37.4 15.8 9.8 10.6 14.7 23.3 14.7 38.3s-4.9 27.8-14.7 38.3c-9.8 10.6-22.3 15.8-37.4 15.8-12.8 0-22.9-4-30.4-11.9v50.2zm50.9-66.4c9 0 16.5-3.2 22.3-9.7s8.8-14.3 8.8-23.6-2.9-17.2-8.8-23.6c-5.8-6.5-13.3-9.7-22.3-9.7-11.9 0-21.3 4.8-27.9 14.4v37.7c6.5 9.7 15.8 14.5 27.9 14.5zm120.6 20.9c-15.1 0-27.6-5.3-37.3-15.8-9.7-10.6-14.6-23.3-14.6-38.3s4.9-27.8 14.6-38.3c9.7-10.6 22.2-15.8 37.3-15.8 12.8 0 22.9 3.9 30.4 11.7v-9.6h22.9v104.2h-22.9v-9.8c-7.5 7.7-17.6 11.7-30.4 11.7zm2.7-20.9c11.9 0 21.2-4.9 27.7-14.6v-37.7c-6.7-9.6-15.9-14.4-27.7-14.4-9 0-16.5 3.2-22.3 9.7s-8.8 14.3-8.8 23.6 2.9 17.2 8.8 23.6c5.9 6.6 13.3 9.8 22.3 9.8zm75.4 18.8v-104.2h22.9v11c7.1-8.8 17.3-13.1 30.6-13.1 12.4 0 22.3 4 29.7 12s11.1 18.6 11.1 32v62.3h-22.9v-58.5c0-8.5-2-15.1-5.9-19.8-4-4.7-9.6-7.1-17-7.1-12.2 0-20.8 5.5-25.6 16.5v69h-22.9zm166.3 2.1c-15.1 0-27.6-5.3-37.3-15.8-9.7-10.6-14.6-23.3-14.6-38.3s4.9-27.8 14.6-38.3c9.7-10.6 22.2-15.8 37.3-15.8 12.8 0 22.9 3.9 30.4 11.7v-50.3l22.9-7.2v152.1h-22.9v-9.8c-7.5 7.7-17.6 11.7-30.4 11.7zm2.7-20.9c11.9 0 21.2-4.9 27.7-14.6v-37.7c-6.7-9.6-15.9-14.4-27.7-14.4-9 0-16.5 3.2-22.3 9.7s-8.8 14.3-8.8 23.6 2.9 17.2 8.8 23.6c5.9 6.6 13.3 9.8 22.3 9.8zm124.2 20.9c-15.1 0-27.6-5.3-37.3-15.8-9.7-10.6-14.6-23.3-14.6-38.3s4.9-27.8 14.6-38.3c9.7-10.6 22.2-15.8 37.3-15.8 12.8 0 22.9 3.9 30.4 11.7v-9.6h22.9v104.2h-22.9v-9.8c-7.5 7.7-17.6 11.7-30.4 11.7zm2.7-20.9c11.9 0 21.2-4.9 27.7-14.6v-37.7c-6.7-9.6-15.9-14.4-27.7-14.4-9 0-16.5 3.2-22.3 9.7s-8.8 14.3-8.8 23.6 2.9 17.2 8.8 23.6c5.9 6.6 13.3 9.8 22.3 9.8z"/></svg>