<svg width="1600" height="900" viewBox="0 0 1600 900" xmlns="http://www.w3.org/2000/svg">
  <defs>
    <linearGradient id="bg" x1="0" y1="0" x2="1" y2="1">
      <stop offset="0%" stop-color="#03130b"/>
      <stop offset="100%" stop-color="#072517"/>
    </linearGradient>
    <linearGradient id="glow" x1="0" y1="0" x2="1" y2="0">
      <stop offset="0%" stop-color="#10b981" stop-opacity="0.15"/>
      <stop offset="100%" stop-color="#84cc16" stop-opacity="0.35"/>
    </linearGradient>
    <filter id="blur"><feGaussianBlur stdDeviation="6"/></filter>
  </defs>
  <rect width="1600" height="900" fill="url(#bg)"/>
  <g opacity="0.25" stroke="#16a34a">
    <path d="M0 180H1600M0 300H1600M0 420H1600M0 540H1600M0 660H1600"/>
    <path d="M200 0V900M400 0V900M600 0V900M800 0V900M1000 0V900M1200 0V900M1400 0V900"/>
  </g>
  <g fill="#22c55e" fill-opacity="0.5">
    <rect x="980" y="350" width="40" height="260"/>
    <rect x="1050" y="290" width="40" height="320"/>
    <rect x="1120" y="240" width="40" height="370"/>
    <rect x="1190" y="180" width="40" height="430"/>
    <rect x="1260" y="260" width="40" height="350"/>
  </g>
  <path d="M60 590 C200 520, 320 610, 450 540 S690 430, 820 470 S1090 350, 1230 390 S1410 290, 1550 320" fill="none" stroke="#86efac" stroke-width="10"/>
  <ellipse cx="350" cy="280" rx="160" ry="90" fill="url(#glow)" filter="url(#blur)"/>
  <ellipse cx="1150" cy="180" rx="220" ry="120" fill="url(#glow)" filter="url(#blur)"/>
</svg>
