<svg width="1600" height="600" viewBox="0 0 1600 600" xmlns="http://www.w3.org/2000/svg">
  <defs>
    <linearGradient id="bg" x1="0" y1="0" x2="1" y2="1">
      <stop offset="0%" stop-color="#0f172a"/>
      <stop offset="100%" stop-color="#111827"/>
    </linearGradient>
    <linearGradient id="line" x1="0" y1="0" x2="1" y2="0">
      <stop offset="0%" stop-color="#22d3ee" stop-opacity="0.2"/>
      <stop offset="100%" stop-color="#84cc16" stop-opacity="0.8"/>
    </linearGradient>
  </defs>
  <rect width="1600" height="600" fill="url(#bg)"/>
  <g stroke="#334155" stroke-opacity="0.35">
    <path d="M0 100H1600M0 200H1600M0 300H1600M0 400H1600M0 500H1600"/>
    <path d="M200 0V600M400 0V600M600 0V600M800 0V600M1000 0V600M1200 0V600M1400 0V600"/>
  </g>
  <path d="M80 420 C220 380, 320 460, 450 390 S700 300, 840 330 S1100 250, 1240 280 S1420 180, 1520 210" fill="none" stroke="url(#line)" stroke-width="8"/>
</svg>
